Coordinates
version=1
nRows=29
nColumns=24
inDegrees=yes

Units are S.I. units (second, meters, Newtons, ...)
Angles are in degrees.

endheader
time	pelvis_tilt	pelvis_list	pelvis_rotation	pelvis_tx	pelvis_ty	pelvis_tz	hip_flexion_r	hip_adduction_r	hip_rotation_r	knee_angle_r	ankle_angle_r	subtalar_angle_r	mtp_angle_r	hip_flexion_l	hip_adduction_l	hip_rotation_l	knee_angle_l	ankle_angle_l	subtalar_angle_l	mtp_angle_l	lumbar_extension	lumbar_bending	lumbar_rotation
      1.31700000	     -3.12694490	      3.44394662	     -3.23096327	      0.25980947	      0.90719772	      0.32205348	     17.35011146	     -8.50313066	    -10.72728784	    -71.34380935	     -2.51168330	      5.22295421	      9.14492256	     13.47976485	      6.99333510	     -3.11847649	    -17.90887408	      9.51148999	     -6.22098592	      1.87835795	     -4.39392634	     -5.40393763	      3.81128021
      1.32116667	     -3.12840110	      3.24879580	     -3.08141153	      0.26487187	      0.90827601	      0.32182146	     17.93332970	     -8.30446500	    -10.97397503	    -71.04785424	     -1.90216525	      5.09544155	      8.96599948	     12.85532126	      6.85663375	     -2.86899771	    -17.39317738	      9.54894788	     -6.20151470	      1.88811637	     -4.44808249	     -5.15240914	      3.46495567
      1.32533333	     -3.17449548	      3.06055065	     -2.94565167	      0.26992429	      0.90925315	      0.32165097	     18.56166384	     -8.09012591	    -11.19043026	    -70.69447202	     -1.30424900	      4.90318022	      8.92467895	     12.29767666	      6.70285837	     -2.71900566	    -16.90670447	      9.56300122	     -6.07944366	      1.89236783	     -4.40814147	     -4.95294428	      3.37182696
      1.32950000	     -3.14542280	      2.84722424	     -2.77725583	      0.27498522	      0.91033982	      0.32139994	     19.06799795	     -7.86887275	    -11.45582422	    -70.24726999	     -0.76599932	      4.79379308	      8.76999330	     11.63393782	      6.54488548	     -2.44665082	    -16.37178491	      9.59844317	     -6.06619695	      1.90207721	     -4.49858441	     -4.67975865	      3.00244804
      1.33366667	     -3.13973042	      2.63553557	     -2.60322283	      0.28003441	      0.91135470	      0.32115458	     19.58554857	     -7.64232299	    -11.72030700	    -69.73890604	     -0.22122933	      4.66182782	      8.62153952	     11.01031374	      6.37850976	     -2.21575026	    -15.86025740	      9.60355916	     -6.01946573	      1.91080032	     -4.53980172	     -4.43123329	      2.74063116
      1.33783333	     -3.15336651	      2.42541348	     -2.42318382	      0.28504489	      0.91229138	      0.32092449	     20.11508407	     -7.41110680	    -11.98264387	    -69.17685678	      0.33582634	      4.51250490	      8.56680904	     10.42991466	      6.20015402	     -2.03335557	    -15.38256292	      9.59163099	     -5.90786919	      1.91519378	     -4.55526078	     -4.18481813	      2.60397028
      1.34200000	     -3.08277608	      2.20612971	     -2.23554172	      0.29010299	      0.91334939	      0.32065068	     20.51751680	     -7.18505113	    -12.26975706	    -68.52254272	      0.77505713	      4.41832869	      8.41808847	      9.71621881	      6.02728360	     -1.76342694	    -14.82387085	      9.62923042	     -5.88786909	      1.92409678	     -4.68162294	     -3.90178577	      2.22211926
      1.34616667	     -3.04404667	      1.97888677	     -2.03485923	      0.29511618	      0.91431567	      0.32039199	     20.94011211	     -6.93921084	    -12.55627254	    -67.80955254	      1.24381010	      4.31769433	      8.29033928	      9.06431048	      5.83394044	     -1.51882092	    -14.31080593	      9.63452908	     -5.83358421	      1.93170610	     -4.76835977	     -3.63983503	      1.95315534
      1.35033333	     -2.98645935	      1.75793715	     -1.82935640	      0.30012609	      0.91526246	      0.32012477	     21.32597271	     -6.70463033	    -12.84910263	    -67.03728576	      1.68325191	      4.21511513	      8.14784903	      8.38986934	      5.64312102	     -1.27850310	    -13.78600771	      9.63831560	     -5.78042780	      1.94064720	     -4.87433560	     -3.37704024	      1.65385931
      1.35450000	     -2.92418701	      1.54910307	     -1.60867047	      0.30512425	      0.91616760	      0.31983748	     21.68996865	     -6.48775344	    -13.15480236	    -66.21248112	      2.13407525	      4.10704566	      7.87435776	      7.71251152	      5.46492664	     -1.02424802	    -13.25459042	      9.58534636	     -5.77524716	      1.95496130	     -4.97994140	     -3.13641331	      1.27135253
      1.35866667	     -2.87097917	      1.30113278	     -1.37860943	      0.31009054	      0.91702484	      0.31956194	     22.03732541	     -6.21927740	    -13.46846377	    -65.30267419	      2.53394532	      4.02812202	      7.80160594	      7.07912004	      5.22955887	     -0.81588478	    -12.79453832	      9.61840701	     -5.66253311	      1.96132297	     -5.08122221	     -2.84465797	      1.13283540
      1.36283333	     -2.75943690	      1.10114049	     -1.15976696	      0.31507139	      0.91790382	      0.31927973	     22.31799912	     -6.00899665	    -13.76522747	    -64.36181831	      2.89551635	      3.91176024	      7.58567242	      6.34008352	      5.05115025	     -0.56307271	    -12.23430138	      9.60482933	     -5.62580151	      1.97503805	     -5.25710557	     -2.60386366	      0.70180256
      1.36700000	     -2.66596585	      0.87292513	     -0.92919880	      0.32003516	      0.91871305	      0.31899845	     22.59257124	     -5.76522317	    -14.07774446	    -63.34379337	      3.21315151	      3.83077333	      7.47100152	      5.65212847	      4.82990736	     -0.35195574	    -11.73944718	      9.65849295	     -5.53561799	      1.98487359	     -5.39897952	     -2.31724467	      0.48236375
      1.37116667	     -2.56061621	      0.66251838	     -0.69466122	      0.32497906	      0.91947740	      0.31871634	     22.84364502	     -5.53875760	    -14.38432159	    -62.28204639	      3.52626641	      3.72791394	      7.34920203	      4.95074292	      4.62305177	     -0.13910497	    -11.23046833	      9.67045624	     -5.45313464	      1.99559461	     -5.56122759	     -2.06077375	      0.18179872
      1.37533333	     -2.45245645	      0.45788789	     -0.45578109	      0.32991551	      0.92018797	      0.31844736	     23.07559149	     -5.31523289	    -14.68923360	    -61.16682277	      3.81281158	      3.62169787	      7.23292533	      4.25325545	      4.41492852	      0.06678687	    -10.73192000	      9.68713804	     -5.36967238	      2.00738584	     -5.72337584	     -1.80993072	     -0.11584446
      1.37950000	     -2.36098174	      0.25192155	     -0.20175031	      0.33482116	      0.92081946	      0.31817226	     23.30701272	     -5.08869679	    -14.99971744	    -59.99372772	      4.10229715	      3.52144848	      7.15197449	      3.60040374	      4.19667591	      0.25180292	    -10.27688604	      9.67444919	     -5.26776437	      2.01654061	     -5.86691804	     -1.56311768	     -0.35823330
      1.38366667	     -2.22717567	      0.08391084	      0.02399803	      0.33974475	      0.92143164	      0.31791548	     23.49343676	     -4.89717140	    -15.27294883	    -58.79478436	      4.30542230	      3.38898073	      7.02558564	      2.86230362	      4.01928188	      0.45673596	     -9.74100530	      9.71722186	     -5.19042153	      2.03308653	     -6.05839949	     -1.35060568	     -0.72648966
      1.38783333	     -2.11469455	     -0.08459686	      0.26546076	      0.34464694	      0.92195848	      0.31767027	     23.68285673	     -4.70066600	    -15.55183010	    -57.54033134	      4.51299916	      3.26224771	      6.89139132	      2.17287703	      3.83133330	      0.64587138	     -9.25000983	      9.72944164	     -5.10343550	      2.05228970	     -6.22523186	     -1.14108109	     -1.05050585
      1.39200000	     -2.00242103	     -0.24292411	      0.50291337	      0.34953605	      0.92241905	      0.31743789	     23.86042396	     -4.50799588	    -15.81455608	    -56.23887401	      4.69199398	      3.13141826	      6.76891965	      1.48963839	      3.64757420	      0.81733205	     -8.76617635	      9.75143197	     -5.00005416	      2.07265476	     -6.38682968	     -0.94228873	     -1.34395418
      1.39616667	     -1.88861203	     -0.38723240	      0.73854156	      0.35442595	      0.92281663	      0.31721982	     24.02346611	     -4.32545615	    -16.06572191	    -54.89648663	      4.84275970	      2.98829142	      6.64335878	      0.80671201	      3.47269419	      0.97897897	     -8.28419022	      9.77156942	     -4.89346370	      2.09663908	     -6.55326187	     -0.76108649	     -1.65024808
      1.40033333	     -1.78458428	     -0.50873615	      0.97450352	      0.35930465	      0.92312882	      0.31701283	     24.18699903	     -4.16246134	    -16.30210198	    -53.52046290	      4.99512694	      2.82745562	      6.44741908	      0.13714728	      3.31687615	      1.14176500	     -7.80105169	      9.75477659	     -4.79896527	      2.13783122	     -6.70673914	     -0.60618160	     -2.00796622
      1.40450000	     -1.69799313	     -0.64167487	      1.20762019	      0.36419174	      0.92336411	      0.31682660	     24.34727071	     -3.97896400	    -16.53021883	    -52.08104856	      5.09135197	      2.71357178	      6.37008692	     -0.49264488	      3.14044844	      1.26327566	     -7.36482629	      9.79489049	     -4.65948376	      2.15723496	     -6.82982005	     -0.43076042	     -2.19731828
      1.40866667	     -1.59520778	     -0.74466257	      1.42452012	      0.36908752	      0.92354865	      0.31667348	     24.48288679	     -3.81561120	    -16.72406086	    -50.61442429	      5.16616429	      2.54721004	      6.29029797	     -1.15554056	      2.99175614	      1.37742945	     -6.89568860	      9.82147122	     -4.51317926	      2.17930322	     -6.97612253	     -0.29579215	     -2.46614146
      1.41283333	     -1.50000684	     -0.82922305	      1.63312375	      0.37399200	      0.92365099	      0.31654410	     24.61613415	     -3.66470820	    -16.89697590	    -49.11725193	      5.21697947	      2.37696386	      6.20740075	     -1.81160998	      2.85851781	      1.48487981	     -6.42587584	      9.85177797	     -4.37609002	      2.20466224	     -7.11556286	     -0.18100617	     -2.75180672
      1.41700000	     -1.40234346	     -0.88702189	      1.82376286	      0.37889392	      0.92368202	      0.31644622	     24.74208096	     -3.52954103	    -17.03116050	    -47.59668253	      5.23041612	      2.18738463	      6.08911587	     -2.48052249	      2.75267716	      1.59791552	     -5.93833700	      9.90592213	     -4.24805554	      2.24459740	     -7.26214448	     -0.10664677	     -3.08179832
      1.42116667	     -1.34381881	     -0.95237299	      2.02839954	      0.38381327	      0.92361486	      0.31634255	     24.87995789	     -3.38711495	    -17.17590065	    -46.01555002	      5.26811684	      2.04402434	      6.00836512	     -3.07751277	      2.63215963	      1.67883370	     -5.50911822	      9.90916765	     -4.10570148	      2.27295311	     -7.34025879	     -0.01127874	     -3.31089380
      1.42533333	     -1.25839705	     -0.98480374	      2.20182626	      0.38874933	      0.92350090	      0.31629473	     24.98856133	     -3.26058890	    -17.26884979	    -44.42505950	      5.24955380	      1.84070688	      5.88823774	     -3.73197526	      2.54554097	      1.76434916	     -5.03139630	      9.96587231	     -3.96635113	      2.32044768	     -7.47004042	      0.03293920	     -3.61699781
      1.42950000	     -1.21769433	     -1.02161966	      2.38356238	      0.39369859	      0.92328152	      0.31624594	     25.11787163	     -3.12778516	    -17.36103795	    -42.77923973	      5.25337759	      1.70176998	      5.80835759	     -4.31065891	      2.45055577	      1.82696436	     -4.60918945	      9.97601993	     -3.81767685	      2.35325921	     -7.52271438	      0.09524573	     -3.83171761
      1.43366667	     -1.15665483	     -1.04002519	      2.54608254	      0.39866387	      0.92302560	      0.31623784	     25.21394513	     -2.99849308	    -17.41224066	    -41.10763890	      5.21253861	      1.51342674	      5.71816565	     -4.92533102	      2.37256374	      1.89659491	     -4.16668565	     10.02072291	     -3.67189101	      2.39258835	     -7.61755337	      0.13179817	     -4.08665958
